<?xml version="1.0" standalone="no"?>
<!DOCTYPE svg PUBLIC "-//W3C//DTD SVG 20010904//EN"
 "http://www.w3.org/TR/2001/REC-SVG-20010904/DTD/svg10.dtd">
<svg version="1.0" xmlns="http://www.w3.org/2000/svg"
 width="2840.000000pt" height="1590.000000pt" viewBox="0 0 2840.000000 1590.000000"
 preserveAspectRatio="xMidYMid meet">

<g transform="translate(0.000000,1590.000000) scale(0.100000,-0.100000)"
fill="#000000" stroke="none">
<path d="M24965 12804 c-2088 -46 -3745 -173 -5465 -419 -1761 -252 -3487
-607 -6253 -1286 -2715 -666 -4812 -1111 -6852 -1453 -622 -104 -1608 -256
-1665 -256 -20 0 -20 8 -20 485 l0 485 -260 0 -260 0 -2 -522 -3 -523 -180
-22 c-225 -27 -804 -92 -1200 -135 -259 -27 -338 -32 -575 -32 -273 -1 -321 4
-413 39 -13 5 -17 2 -17 -12 0 -65 171 -115 485 -143 198 -18 776 -24 1060
-11 311 14 767 39 812 45 l33 5 0 -1605 0 -1604 260 0 260 0 0 1623 0 1623
147 13 c1079 89 2523 277 3936 512 1474 244 2850 515 4937 969 835 182 1041
225 1575 335 2636 540 4702 823 6895 945 836 46 1353 61 2395 69 l900 7 57 23
c85 33 147 80 200 150 146 190 106 466 -87 613 -97 73 -133 82 -365 83 -113 1
-263 0 -335 -1z"/>
<path d="M23540 8100 l0 -2260 1200 0 1200 0 0 240 0 240 -935 0 -935 0 0 790
0 790 820 0 820 0 0 240 0 240 -820 0 -820 0 0 750 0 750 885 0 885 0 0 240 0
240 -1150 0 -1150 0 0 -2260z"/>
<path d="M19118 9938 l-248 -82 0 -393 0 -393 -275 0 -275 0 0 -220 0 -220
275 0 275 0 0 -964 c0 -614 4 -1012 11 -1093 31 -359 160 -588 399 -707 134
-66 248 -88 450 -88 177 0 307 21 409 67 l61 28 0 213 0 214 -58 -30 c-99 -50
-169 -63 -317 -58 -104 4 -142 9 -190 28 -81 31 -164 114 -194 196 -51 134
-51 136 -51 1200 l0 994 405 0 405 0 0 220 0 220 -405 0 -405 0 0 475 c0 374
-3 475 -12 474 -7 0 -124 -37 -260 -81z"/>
<path d="M7285 9139 c-358 -36 -642 -212 -869 -536 -27 -40 -54 -73 -58 -73
-4 0 -8 122 -8 270 l0 270 -255 0 -255 0 0 -1615 0 -1615 255 0 254 0 4 1013
c3 929 5 1018 21 1087 59 247 169 445 318 570 93 78 164 118 281 158 94 33
113 36 247 40 177 5 260 -10 377 -68 207 -102 324 -286 385 -605 21 -107 21
-140 25 -1152 l4 -1043 250 0 249 0 0 1048 c0 653 -4 1090 -11 1162 -19 212
-70 414 -140 552 -95 189 -251 349 -424 436 -170 85 -424 124 -650 101z"/>
<path d="M13719 9140 c-406 -37 -750 -234 -1007 -578 -178 -239 -286 -516
-327 -842 -23 -177 -16 -539 14 -705 66 -378 194 -648 411 -865 286 -287 669
-411 1178 -380 348 21 633 100 873 242 l99 59 0 239 0 240 -102 -69 c-205
-137 -419 -224 -642 -263 -174 -29 -436 -22 -581 16 -120 31 -276 107 -362
176 -141 113 -266 313 -318 510 -26 100 -55 290 -55 366 l0 44 1140 0 1140 0
0 174 c0 714 -188 1172 -590 1443 -160 107 -366 173 -609 193 -128 11 -138 11
-262 0z m319 -446 c293 -60 501 -274 581 -597 17 -65 40 -256 41 -324 0 -10
-182 -13 -875 -13 -827 0 -875 1 -875 18 1 32 38 188 65 268 113 336 370 580
685 650 81 18 286 17 378 -2z"/>
<path d="M16860 9140 c-361 -32 -652 -157 -848 -365 -183 -194 -260 -414 -232
-660 30 -275 147 -450 420 -631 75 -50 404 -199 607 -275 313 -117 465 -226
542 -389 24 -50 26 -66 26 -175 -1 -108 -3 -126 -27 -177 -53 -114 -165 -194
-333 -239 -101 -27 -384 -37 -521 -20 -251 33 -449 111 -696 275 l-28 18 0
-269 0 -270 78 -36 c392 -184 919 -213 1351 -75 253 81 428 197 546 363 125
175 173 358 154 581 -17 201 -74 321 -218 465 -162 161 -342 258 -816 441
-263 102 -344 146 -436 238 -103 103 -123 153 -124 305 0 103 2 114 31 175 36
75 84 127 162 177 137 88 239 113 457 113 251 0 472 -52 686 -162 57 -29 107
-54 112 -56 4 -2 7 111 7 251 l0 255 -82 32 c-234 89 -558 133 -818 110z"/>
<path d="M9022 9052 c3 -10 279 -737 613 -1615 l609 -1597 250 0 251 0 632
1598 c348 878 636 1605 639 1615 6 16 -11 17 -258 17 l-265 0 -443 -1216
c-243 -669 -451 -1248 -462 -1287 -10 -40 -27 -121 -36 -181 -10 -60 -23 -111
-29 -113 -6 -2 -13 18 -17 46 -15 112 -92 346 -501 1520 l-430 1231 -279 0
c-264 0 -278 -1 -274 -18z"/>
<path d="M20820 7640 l0 -200 860 0 860 0 0 200 0 200 -860 0 -860 0 0 -200z"/>
<path d="M12660 5161 c-44 -14 -104 -48 -126 -73 -78 -85 -81 -207 -8 -288 45
-50 92 -71 244 -110 208 -54 250 -83 250 -171 0 -40 -6 -55 -30 -83 -46 -52
-102 -69 -208 -64 -73 3 -96 9 -135 31 -54 32 -81 66 -97 126 -11 41 -13 43
-42 37 -17 -3 -40 -6 -51 -6 -17 0 -19 -4 -13 -41 26 -166 180 -262 394 -246
154 11 254 85 281 209 24 107 -33 211 -140 258 -28 11 -105 35 -172 52 -145
37 -175 48 -206 82 -30 32 -32 96 -4 134 34 48 88 67 183 67 124 -1 190 -41
207 -125 7 -39 15 -43 70 -35 l45 7 -7 36 c-26 137 -140 213 -318 211 -51 0
-103 -4 -117 -8z"/>
<path d="M8360 4720 l0 -440 50 0 50 0 0 179 0 178 173 5 c151 5 179 8 232 29
98 40 145 118 145 245 0 45 -7 73 -26 112 -55 112 -120 132 -416 132 l-208 0
0 -440z m485 310 c39 -37 55 -73 55 -127 0 -63 -27 -112 -76 -137 -34 -18 -61
-21 -201 -24 l-163 -3 0 161 0 161 179 -3 c176 -3 180 -4 206 -28z"/>
<path d="M10640 5005 c0 -85 -4 -155 -8 -155 -5 0 -17 10 -28 21 -53 60 -164
75 -249 35 -102 -47 -156 -149 -158 -296 -1 -124 22 -190 92 -260 100 -100
227 -108 317 -21 l34 34 0 -42 0 -41 50 0 50 0 0 440 0 440 -50 0 -50 0 0
-155z m-100 -175 c71 -36 103 -108 104 -235 1 -97 -21 -161 -69 -204 -88 -77
-217 -33 -260 88 -18 51 -20 178 -4 236 31 113 133 164 229 115z"/>
<path d="M10910 5100 l0 -60 50 0 50 0 0 60 0 60 -50 0 -50 0 0 -60z"/>
<path d="M14900 4720 l0 -440 50 0 50 0 0 128 0 128 39 38 38 37 98 -153 c54
-84 104 -159 110 -166 8 -9 31 -12 68 -10 l56 3 -131 199 -130 198 118 119
119 119 -62 0 -61 0 -131 -132 -131 -133 0 253 0 252 -50 0 -50 0 0 -440z"/>
<path d="M15786 5133 c4 -16 55 -212 113 -438 l106 -410 57 -3 56 -3 16 53
c20 71 182 666 190 702 4 15 9 26 11 24 3 -3 50 -171 105 -374 55 -203 103
-377 106 -386 4 -14 17 -18 57 -18 l52 0 115 426 c63 234 116 432 118 440 3
11 -9 14 -50 14 l-54 0 -90 -375 c-49 -206 -91 -375 -94 -375 -3 0 -14 48 -26
108 -11 59 -54 227 -95 375 l-74 267 -67 0 -67 0 -15 -52 c-34 -121 -157 -569
-174 -638 -15 -60 -21 -70 -25 -50 -4 14 -41 178 -82 365 -42 187 -78 348 -81
358 -4 13 -17 17 -60 17 -54 0 -54 0 -48 -27z"/>
<path d="M16990 5100 l0 -60 50 0 50 0 0 60 0 60 -50 0 -50 0 0 -60z"/>
<path d="M17600 4720 l0 -440 50 0 50 0 0 208 c0 114 5 224 10 244 29 104 188
150 259 74 35 -37 41 -83 41 -313 l0 -213 51 0 51 0 -4 248 c-3 224 -6 251
-24 292 -25 54 -50 77 -101 96 -80 28 -181 13 -237 -37 -19 -16 -36 -29 -40
-29 -3 0 -6 70 -6 155 l0 155 -50 0 -50 0 0 -440z"/>
<path d="M18785 5128 c-21 -51 -307 -811 -313 -830 -4 -16 3 -18 51 -18 l55 0
40 113 c22 61 43 122 46 135 7 22 9 22 196 22 l188 0 26 -67 c14 -38 36 -97
50 -133 l24 -65 62 -3 c52 -3 62 -1 57 12 -3 8 -81 201 -173 428 -91 227 -169
419 -171 426 -3 8 -26 12 -65 12 -57 0 -59 -1 -73 -32z m149 -272 c42 -115 76
-211 76 -213 0 -1 -67 -3 -150 -3 -82 0 -150 3 -150 6 0 3 27 80 60 172 33 92
65 187 71 211 5 23 12 41 14 40 1 -2 37 -98 79 -213z"/>
<path d="M19360 5100 l0 -60 50 0 50 0 0 60 0 60 -50 0 -50 0 0 -60z"/>
<path d="M17328 5108 l-48 -30 0 -79 0 -79 -40 0 -40 0 0 -40 c0 -40 0 -40 39
-40 l40 0 3 -251 3 -251 33 -29 c30 -27 38 -29 108 -29 l77 0 -7 31 c-3 17 -6
38 -6 45 0 10 -13 14 -39 14 -70 0 -71 4 -71 251 l0 219 55 0 55 0 0 40 0 40
-55 0 -54 0 -3 108 -3 109 -47 -29z"/>
<path d="M11848 5103 l-38 -26 0 -78 0 -79 -40 0 -40 0 0 -40 0 -40 40 0 40 0
0 -246 0 -246 34 -34 c33 -33 37 -34 111 -34 66 0 76 2 71 16 -3 9 -6 29 -6
45 0 28 -2 29 -44 29 -70 0 -71 3 -71 249 l0 216 53 3 52 3 0 40 0 39 -55 0
-55 0 0 105 c0 58 -3 105 -7 104 -5 0 -25 -12 -45 -26z"/>
<path d="M13333 5102 l-43 -27 0 -77 0 -78 -40 0 -40 0 0 -40 c0 -40 0 -40 39
-40 l39 0 4 -242 c2 -173 7 -249 16 -265 20 -36 64 -53 137 -53 l65 0 0 29 c0
50 -9 61 -51 61 -66 0 -69 12 -69 257 l0 213 55 0 55 0 0 40 0 40 -55 0 -55 0
0 105 c0 58 -3 105 -7 104 -5 0 -27 -13 -50 -27z"/>
<path d="M9322 4914 c-13 -9 -37 -34 -53 -57 l-29 -40 0 51 0 52 -45 0 -45 0
0 -320 0 -320 49 0 49 0 4 218 c4 243 11 276 70 312 32 20 67 22 110 5 13 -5
21 2 32 30 22 51 21 54 -19 71 -45 19 -95 18 -123 -2z"/>
<path d="M9717 4916 c-119 -43 -182 -138 -194 -291 -15 -196 91 -337 264 -352
129 -11 235 43 283 143 12 25 21 47 19 49 -2 2 -25 6 -50 10 l-46 7 -26 -45
c-46 -78 -138 -107 -222 -68 -67 31 -109 92 -117 171 l-3 35 238 3 239 2 -7
62 c-10 80 -19 111 -50 164 -59 101 -210 152 -328 110z m166 -80 c42 -17 83
-66 97 -114 18 -65 27 -62 -170 -62 -197 0 -190 -3 -168 61 18 53 44 85 90
108 49 24 104 27 151 7z"/>
<path d="M11337 4916 c-75 -27 -114 -62 -148 -132 -28 -56 -34 -80 -37 -156
-10 -211 84 -342 254 -356 116 -9 203 39 254 141 16 33 30 66 30 72 0 11 -88
32 -94 23 -1 -2 -10 -24 -20 -50 -43 -117 -172 -144 -262 -55 -51 51 -69 123
-61 233 6 81 31 139 77 177 79 67 208 36 241 -58 12 -33 14 -34 58 -28 25 3
48 7 50 9 2 2 -4 24 -13 49 -44 114 -200 176 -329 131z"/>
<path d="M13774 4920 c-57 -18 -126 -73 -155 -125 -38 -68 -54 -173 -40 -266
27 -168 123 -254 286 -254 178 0 277 100 292 295 11 147 -42 265 -146 323 -44
25 -67 31 -130 33 -42 2 -90 -1 -107 -6z m159 -84 c77 -33 119 -113 120 -226
0 -105 -17 -156 -67 -206 -52 -52 -112 -66 -180 -40 -87 33 -126 106 -126 235
0 99 13 144 57 192 51 56 129 74 196 45z"/>
<path d="M14449 4916 c-138 -49 -196 -157 -187 -345 6 -108 27 -165 80 -220
91 -93 252 -107 355 -31 39 29 85 101 97 151 5 25 3 27 -40 34 -25 3 -47 5
-48 3 -1 -2 -10 -24 -20 -50 -43 -117 -172 -144 -262 -55 -45 46 -64 104 -64
197 0 93 19 151 64 197 85 84 222 62 256 -42 11 -34 12 -34 58 -28 26 3 48 7
49 7 1 1 -3 20 -10 42 -17 57 -91 128 -149 142 -60 15 -133 15 -179 -2z"/>
<path d="M10910 4600 l0 -320 50 0 50 0 0 320 0 320 -50 0 -50 0 0 -320z"/>
<path d="M16990 4600 l0 -320 50 0 50 0 0 320 0 320 -50 0 -50 0 0 -320z"/>
<path d="M19360 4600 l0 -320 50 0 50 0 0 320 0 320 -50 0 -50 0 0 -320z"/>
</g>
</svg>
